# xmcd
#
# Track frame offsets:
#	150
#	16515
#	28914
#	47230
#	68213
#	86439
#	102574
#	118007
#	133212
#	152261
#	168480
#	181053
#	199953
#	216909
#	230144
#	247748
#	252512
#	253267
#	253948
#	254777
#	255533
#	256362
#	257117
#	257872
#	258776
#	259680
#	260735
#	261715
#	262996
#	263900
#
# Disc length: 3525 seconds
#
# Revision: 1
# Processed by: cddbd v1.5.2PL0 Copyright (c) Steve Scherf et al.
# Submitted via: audiograbber 1.83.01
#
DISCID=cf0dc31e
DTITLE=Various Artist - CDX Volume 573 (June 24, 2013)
DYEAR=2013
DGENRE=Country
TTITLE0=Toby Keith - Drinks After Work
TTITLE1=Old Crow Medicine Sho - Carry Me Back to Virginia
TTITLE2=Blue Sky Riders - Feelin' Brave 
TTITLE3=Tracy Lawrence - Footprints on the Moon
TTITLE4=Jason Sturgeon - Angel Eyes
TTITLE5=Logan Tudeen - Circles 
TTITLE6=Jared Blake - Countryfied
TTITLE7=Jay Jolley - God Save Us All From Religion [Radio Edit]
TTITLE8=Doug Newnum and SOS Renewal - Gonna Give You Praise
TTITLE9=North 40 - Hey Girl Hey
TTITLE10=CERRITO - Hot Pepper Doll
TTITLE11=Burly Clyde - Living In America 
TTITLE12=Kari and Billy - Play Me A Fiddle Song 
TTITLE13=Blackjack Billy - The Booze Cruise
TTITLE14=Joe - Final Curtain Call   
TTITLE15=Joanna Mosca - Liner - About the Song
TTITLE16=Joanna Mosca - Liner - Home Town Country
TTITLE17=Joanna Mosca - Liner - Kickin Country
TTITLE18=Joanna Mosca - Liner - Super Country Greatest Hits of All Time
TTITLE19=Joanna Mosca - Liner - The Best in Country Music
TTITLE20=Joanna Mosca - Liner - The Best in Today's Hot New Country Music
TTITLE21=Joanna Mosca - Liner - Today's Best Country
TTITLE22=Joanna Mosca - Liner - Today's Hot Country Music
TTITLE23=Lizzie Sider - Liner - Home Town Country
TTITLE24=Lizzie Sider - Liner - Kickin' Country
TTITLE25=Lizzie Sider - Liner - Super Country Greatest Hits of All Time
TTITLE26=Lizzie Sider - Liner - The Best in Country Music
TTITLE27=Lizzie Sider - Liner - The Best in Today's Modern Country, Including M
TTITLE27=y N
TTITLE28=Lizzie Sider - Liner - Today's Best Country
TTITLE29=Lizzie Sider - Liner - Today's Hot Country Music
EXTD=
EXTT0=
EXTT1=
EXTT2=
EXTT3=
EXTT4=
EXTT5=
EXTT6=
EXTT7=
EXTT8=
EXTT9=
EXTT10=
EXTT11=
EXTT12=
EXTT13=
EXTT14=
EXTT15=
EXTT16=
EXTT17=
EXTT18=
EXTT19=
EXTT20=
EXTT21=
EXTT22=
EXTT23=
EXTT24=
EXTT25=
EXTT26=
EXTT27=
EXTT28=
EXTT29=
PLAYORDER=
